#!OML:ASF C:\Vicon Data\Big\jianyuan-13\jianyuan\Session 1\Capture.male.ASF
:FULLY-SPECIFIED
:DEGREES
209
root -7.175756 17.864360 -3.904780 1.994456 4.754820 1.916627
lowerback -6.832156 -2.295464 -2.706258 
upperback 1.463975 -2.836744 0.218917 
thorax 5.501535 -1.492230 1.417197 
lowerneck -4.941890 -0.943750 2.357082 
upperneck 1.090966 -1.302104 -4.090670 
head 1.137780 -0.707977 -1.716841 
rclavicle 0.000000 0.000000 
rhumerus -60.141867 -18.472444 -67.876613 
rradius 26.314927 
rwrist 34.516994 
rhand -17.874011 -19.082191 
rfingers 0.000000 
rthumb 8.391892 -48.895516 
lclavicle 0.000000 0.000000 
lhumerus -7.185632 0.426006 93.884709 
lradius 49.138959 
lwrist -19.681670 
lhand -19.708954 5.760946 
lfingers 0.000000 
lthumb 6.620774 35.637438 
rfemur -53.632695 4.019739 5.215395 
rtibia 26.218870 
rfoot -10.730772 -13.986315 
rtoes -31.686171 
lfemur -5.524626 -5.476093 -26.571794 
ltibia 17.115600 
lfoot -10.983324 2.496433 
ltoes -28.433251 
210
root -7.162698 17.865039 -3.826048 1.679212 4.924931 2.025407
lowerback -6.324657 -2.371278 -2.727731 
upperback 1.601573 -2.947995 0.175547 
thorax 5.361616 -1.547910 1.388296 
lowerneck -5.267102 -0.869607 2.347659 
upperneck 1.149961 -1.205501 -4.096058 
head 1.216753 -0.663467 -1.719367 
rclavicle 0.000000 0.000000 
rhumerus -60.439434 -18.770664 -67.427513 
rradius 26.072559 
rwrist 35.182323 
rhand -17.861791 -19.024518 
rfingers 0.000000 
rthumb 8.403717 -48.837287 
lclavicle 0.000000 0.000000 
lhumerus -6.421752 -0.313686 93.831558 
lradius 50.151106 
lwrist -19.044288 
lhand -19.678925 5.623784 
lfingers 0.000000 
lthumb 6.649748 35.499343 
rfemur -54.036140 3.940699 4.650441 
rtibia 25.284594 
rfoot -10.120436 -13.697799 
rtoes -32.153573 
lfemur -4.642887 -5.754520 -26.803121 
ltibia 16.720476 
lfoot -11.142772 2.786716 
ltoes -28.790881 
211
root -7.155517 17.859341 -3.741693 1.333129 5.006903 2.001162
lowerback -5.896620 -2.390608 -2.846383 
upperback 1.845115 -2.982641 0.320850 
thorax 5.389856 -1.575094 1.613037 
lowerneck -5.895184 -0.835148 2.122772 
upperneck 1.308407 -1.149458 -4.034684 
head 1.379908 -0.642837 -1.667977 
rclavicle 0.000000 0.000000 
rhumerus -60.450104 -18.761830 -67.190448 
rradius 25.897452 
rwrist 35.085552 
rhand -17.858999 -19.174247 
rfingers 0.000000 
rthumb 8.406402 -48.986923 
lclavicle 0.000000 0.000000 
lhumerus -5.528070 -1.104301 93.988412 
lradius 51.211088 
lwrist -18.630388 
lhand -19.807666 5.653992 
lfingers 0.000000 
lthumb 6.525489 35.533475 
rfemur -54.493952 3.984909 4.246120 
rtibia 24.538210 
rfoot -9.652915 -13.778434 
rtoes -32.600632 
lfemur -3.777847 -6.065085 -26.893012 
ltibia 16.415285 
lfoot -11.423050 3.183124 
ltoes -28.983809 
212
root -7.151489 17.859644 -3.656438 0.844748 5.059269 2.092861
lowerback -5.278828 -2.436062 -2.831090 
upperback 2.066892 -3.054503 0.178303 
thorax 5.265561 -1.609457 1.469443 
lowerneck -6.238754 -0.725028 2.379419 
upperneck 1.280105 -1.025062 -4.105092 
head 1.435809 -0.583840 -1.736623 
rclavicle 0.000000 0.000000 
rhumerus -60.780741 -19.164338 -66.862543 
rradius 25.692014 
rwrist 35.920163 
rhand -17.578855 -18.986567 
rfingers 0.000000 
rthumb 8.676720 -48.788200 
lclavicle 0.000000 0.000000 
lhumerus -4.810095 -1.907530 93.621666 
lradius 52.268196 
lwrist -18.232550 
lhand -19.853018 5.491937 
lfingers 0.000000 
lthumb 6.481730 35.372746 
rfemur -54.817266 4.022014 3.828698 
rtibia 24.005414 
rfoot -9.256787 -13.912395 
rtoes -32.674112 
lfemur -2.790963 -6.242268 -27.107764 
ltibia 16.209219 
lfoot -11.744844 3.461588 
ltoes -29.029685 
213
root -7.144405 17.852600 -3.568369 0.440673 5.110383 2.199195
lowerback -4.808813 -2.456173 -2.939106 
upperback 2.339826 -3.085219 0.167338 
thorax 5.291080 -1.632004 1.528281 
lowerneck -6.672871 -0.684793 2.339277 
upperneck 1.166920 -0.977898 -4.095848 
head 1.477891 -0.564102 -1.729022 
rclavicle 0.000000 0.000000 
rhumerus -60.812149 -19.313946 -66.710073 
rradius 25.551843 
rwrist 36.001880 
rhand -17.473410 -18.959908 
rfingers 0.000000 
rthumb 8.778525 -48.757359 
lclavicle 0.000000 0.000000 
lhumerus -3.948969 -2.575416 93.570487 
lradius 53.352270 
lwrist -17.906724 
lhand -19.956450 5.445001 
lfingers 0.000000 
lthumb 6.381890 35.328846 
rfemur -55.232426 3.457550 3.989712 
rtibia 23.753141 
rfoot -8.634506 -13.608468 
rtoes -33.411894 
lfemur -1.901400 -6.464438 -27.364807 
ltibia 16.042746 
lfoot -12.077576 3.813358 
ltoes -29.397415 
214
root -7.143834 17.846710 -3.477420 -0.037585 5.142425 2.192835
lowerback -4.276135 -2.480729 -3.032001 
upperback 2.616661 -3.127970 0.201560 
thorax 5.287423 -1.660970 1.627349 
lowerneck -7.063122 -0.615634 2.333379 
upperneck 1.040538 -0.896517 -4.022250 
head 1.509025 -0.525186 -1.704651 
rclavicle 0.000000 0.000000 
rhumerus -60.784760 -19.338829 -66.708006 
rradius 25.328379 
rwrist 36.223241 
rhand -17.389859 -18.908278 
rfingers 0.000000 
rthumb 8.859179 -48.702337 
lclavicle 0.000000 0.000000 
lhumerus -3.174406 -3.218733 93.419124 
lradius 54.421122 
lwrist -17.458632 
lhand -20.008836 5.232691 
lfingers 0.000000 
lthumb 6.331303 35.118029 
rfemur -55.635866 3.257702 4.056092 
rtibia 23.734960 
rfoot -8.243196 -13.736600 
rtoes -33.818135 
lfemur -1.039633 -6.531601 -27.464115 
ltibia 16.034934 
lfoot -12.441635 3.988741 
ltoes -29.638822 
215
root -7.135808 17.836357 -3.381579 -0.441759 5.229709 2.192070
lowerback -3.861361 -2.555928 -2.915809 
upperback 2.884784 -3.243639 0.143675 
thorax 5.327890 -1.716906 1.503258 
lowerneck -7.283702 -0.518926 2.345138 
upperneck 0.711160 -0.781223 -4.011891 
head 1.445782 -0.467921 -1.698231 
rclavicle 0.000000 0.000000 
rhumerus -60.758140 -19.363408 -66.760673 
rradius 25.156563 
rwrist 36.955174 
rhand -17.133604 -18.768890 
rfingers 0.000000 
rthumb 9.106376 -48.552285 
lclavicle 0.000000 0.000000 
lhumerus -2.458184 -3.631285 93.201030 
lradius 55.579037 
lwrist -17.116972 
lhand -19.975386 4.972430 
lfingers 0.000000 
lthumb 6.363563 34.856802 
rfemur -56.137210 2.594469 4.503476 
rtibia 24.027857 
rfoot -7.719714 -13.414530 
rtoes -33.987021 
lfemur -0.216464 -6.541902 -27.579909 
ltibia 16.016851 
lfoot -12.754428 4.018484 
ltoes -29.642514 
216
root -7.132345 17.826011 -3.279054 -0.835212 5.334695 2.145092
lowerback -3.482168 -2.594508 -3.091707 
upperback 3.133209 -3.303466 0.333068 
thorax 5.397980 -1.761360 1.802579 
lowerneck -7.464256 -0.490599 2.235055 
upperneck 0.375517 -0.745269 -4.028026 
head 1.370589 -0.450897 -1.680908 
rclavicle 0.000000 0.000000 
rhumerus -60.641893 -19.264641 -66.637341 
rradius 25.016835 
rwrist 36.901195 
rhand -16.865457 -18.561583 
rfingers 0.000000 
rthumb 9.365159 -48.333565 
lclavicle 0.000000 0.000000 
lhumerus -1.765760 -4.045631 93.313494 
lradius 56.643783 
lwrist -16.846436 
lhand -20.061674 4.719551 
lfingers 0.000000 
lthumb 6.280257 34.606439 
rfemur -56.730877 2.048507 4.923988 
rtibia 24.627733 
rfoot -7.306217 -13.217011 
rtoes -33.734722 
lfemur 0.616168 -6.411902 -27.607889 
ltibia 15.965912 
lfoot -12.933075 3.901068 
ltoes -29.790502 
